<?xml version="1.0" encoding="UTF-8"?><svg id="Main" xmlns="http://www.w3.org/2000/svg" viewBox="0 0 1920 1080"><defs><style>.cls-1{fill:#002619;}.cls-2{fill:#ff4d00;}</style></defs><g><path class="cls-2" d="M1521.17,338.04l-33.44,33.44,134.35,134.35h189.84v-45.31c-113.65-.95-216.4-47.57-290.75-122.48Z"/><path class="cls-2" d="M1521.17,730.45l-33.44-33.44,134.35-134.35h189.84v45.31c-113.65,.95-216.4,47.57-290.75,122.48Z"/></g><g><g><path class="cls-1" d="M174.51,295.28l-70.29,192.31-.82,2.36h30.75l17.86-52.93h99.44l17.85,52.94,30.93-.11-69.62-194.57h-56.13Zm-12.39,113.08l39.91-108.22,40.01,108.15-79.92,.07Z"/><path class="cls-1" d="M407.81,420.12c0,30.59-14.05,48.13-38.55,48.13-21.64,0-34.05-13.72-34.05-37.65v-92.97h-28.99v93.87c0,38.34,20.32,61.24,54.36,61.24,23.6,0,40.17-11.44,47.23-31.57v28.58h28.98v-152.24h-28.98v82.61Z"/><path class="cls-1" d="M652.03,334.01c-46.98,0-75.02,29.61-75.02,79.22s28.05,79.52,75.02,79.52,74.73-29.73,74.73-79.52-27.94-79.22-74.73-79.22Zm0,133.95c-28.88,0-45.43-19.95-45.43-54.73s16.99-54.73,45.43-54.73,45.44,20.46,45.44,54.73-16.56,54.73-45.44,54.73Z"/><path class="cls-1" d="M827.57,334.01c-26.71,0-45.33,11.35-52.93,31.28v-70.26h-28.99v194.72h28.99v-28.46c7.6,20.04,26.22,31.46,52.93,31.46,40.97,0,65.43-29.73,65.43-79.52s-24.46-79.22-65.43-79.22Zm-9.6,133.95c-28.45,0-45.43-20.46-45.43-54.73s16.99-54.73,45.43-54.73,45.44,20.46,45.44,54.73-16.56,54.73-45.44,54.73Z"/><path class="cls-1" d="M1029.87,365.36c-7.62-19.97-26.35-31.36-53.24-31.36-40.78,0-65.13,29.61-65.13,79.22s24.35,79.52,65.13,79.52c26.57,0,45.54-11.8,53.24-31.93v28.94h28.98v-152.11h-28.98v27.72Zm-43.65,102.59c-28.69,0-45.14-19.95-45.14-54.73s16.45-54.73,45.14-54.73,45.44,20.46,45.44,54.73-16.99,54.73-45.44,54.73Z"/><path class="cls-1" d="M1172.45,334.26c-24.42,0-41.53,11.56-48.73,31.89v-71.07h-28.99v194.67h28.99v-83.16c0-30.4,14.6-47.84,40.04-47.84,22.59,0,35.55,13.61,35.55,37.35v93.65h28.99v-94.25c0-38.34-20.87-61.24-55.85-61.24Z"/><path class="cls-1" d="M1340.7,333.86c-24.42,0-41.53,14.01-48.74,34.34v-30.74h-28.99v152.08h28.99v-80.91c0-30.4,14.6-47.84,40.04-47.84,22.59,0,35.55,13.62,35.55,37.35v91.39h28.99v-91.99c0-38.34-20.87-63.69-55.85-63.69Z"/><path class="cls-1" d="M513.62,295.03h-27.64v42.48h-25.19v22.18h23.97v85.9c0,29.52,17.19,47.15,45.97,47.15,10.36,0,21.57-2.32,29.99-6.19l1.28-.59v-24.16l-3.19,1.59c-5.81,2.9-13.21,4.56-20.3,4.56-15.74,0-24.77-8.7-24.77-23.86v-84.4h50.44v-22.18h-50.57v-42.48Z"/></g><g><path class="cls-1" d="M365.23,639.51c-22.86-3.92-37.85-7.55-37.85-21.7s11.71-21.37,32.11-21.37,32.41,10.55,32.41,29.72v2.2h27.97v-2.2c0-32.02-22.57-51.13-60.38-51.13s-60.38,16.96-60.38,44.27c0,33.01,30.96,38.4,55.8,42.74l1.17,.22c21.47,4.06,40,7.56,40,25.96,0,14.5-13.68,23.16-36.59,23.16s-36.88-11.38-36.88-31.21v-2.2h-27.97v2.2c0,33.14,24.25,52.92,64.85,52.92s64.86-17.55,64.86-46.95c0-36-32.77-41.89-59.12-46.63Z"/><path class="cls-1" d="M723.95,675.14c-5.5,21.44-20.43,33.25-42.03,33.25-28.18,0-44.34-19.86-44.34-54.49s16.57-54.49,44.34-54.49c20.5,0,34.74,10.51,41.17,30.4l.5,1.52h28.79l-.58-2.67c-7.36-34.1-32.83-53.65-69.88-53.65-46.22,0-73.81,29.49-73.81,78.88s27.59,79.18,73.81,79.18c38.17,0,63.98-20.77,70.79-56.99l.49-2.61h-28.83l-.42,1.66Z"/><path class="cls-1" d="M881.87,660.78c0,30.46-13.99,47.92-38.37,47.92-21.55,0-33.9-13.66-33.9-37.48v-93.2h-28.87v94.1c0,38.18,20.23,60.98,54.12,60.98,23.48,0,39.98-11.38,47.02-31.39v28.41h28.87v-152.09h-28.87v82.76Z"/><rect class="cls-1" x="1066.96" y="536" width="28.87" height="26.13"/><rect class="cls-1" x="1066.96" y="578.01" width="28.87" height="152.09"/><path class="cls-1" d="M1174.79,535.84h-27.58v42.28h-25.12v22.63h23.91v83.53c0,29.46,17.14,48.75,45.85,48.75,10.33,0,21.52-2.31,29.92-6.18l1.28-.59v-24.1l-3.18,1.59c-5.79,2.89-13.17,4.55-20.25,4.55-15.7,0-24.69-10.39-24.69-25.52v-82.03h50.52v-22.63h-50.64v-42.28Z"/><path class="cls-1" d="M551.82,688.24c-6.83,13.34-20.14,21.05-37.73,21.05-22.8,0-37.37-14.91-41.2-41.11h111.71l-.07-16.49c-.9-48.03-27.04-76.66-70.44-76.66s-70.82,29.6-70.82,79.18,26.47,78.88,70.82,78.88c34.62,0,59.19-16.54,67.87-44.85h-30.14Zm-37.73-89.41c23.54,0,38.55,16.19,41.45,44.52h-83.2c2.92-28.34,18.04-44.52,41.75-44.52Z"/><polygon class="cls-1" points="1317.85 730.11 1300.38 783.67 1331.22 783.67 1397.61 578.01 1366.69 578.01 1323.56 719.54 1280.45 578.01 1249.54 578.01 1298.39 730.11 1317.85 730.11"/><path class="cls-1" d="M1037.32,577.13c-4.93-1.32-10.56-2.1-16.66-2.1-23.32,0-39.72,12.44-46.73,34.34v-31.36h-28.87v152.09h28.87v-74.7c0-34.06,14.75-53.59,40.46-53.59,7.9,0,15.44,1.74,20.69,4.77l2.24,1.3v-30.75Z"/></g></g></svg>